<svg xmlns="http://www.w3.org/2000/svg" viewBox="0 0 512 512">
  <rect width="512" height="512" fill="#0b0c14"/>
  <!-- sigil scaled to ~70% (maskable safe zone) and tinted gold -->
  <g transform="translate(78 78) scale(3.56)">
    <g fill="none" stroke="#e8c877" stroke-linecap="round" opacity="0.85">
      <circle cx="50" cy="50" r="47" stroke-width="0.9"/>
      <circle cx="50" cy="50" r="43" stroke-width="2.2" stroke-dasharray="0.6 5.4"/>
      <circle cx="50" cy="50" r="38.5" stroke-width="0.7"/>
      <circle cx="50" cy="50" r="23" stroke-width="1"/>
      <circle cx="50" cy="50" r="19" stroke-width="1.6" stroke-dasharray="0.6 3.1"/>
      <g stroke-width="0.7">
        <line x1="50" y1="11.5" x2="50" y2="88.5"/>
        <line x1="11.5" y1="50" x2="88.5" y2="50"/>
        <line x1="22" y1="22" x2="78" y2="78"/>
        <line x1="78" y1="22" x2="22" y2="78"/>
      </g>
    </g>
    <path fill="#e8c877" d="M50 5.5 L54.5 45.5 L94.5 50 L54.5 54.5 L50 94.5 L45.5 54.5 L5.5 50 L45.5 45.5 Z"/>
    <path fill="#f0d78a" opacity="0.7" d="M50 18 L52.5 47.5 L82 50 L52.5 52.5 L50 82 L47.5 52.5 L18 50 L47.5 47.5 Z" transform="rotate(45 50 50)"/>
    <circle cx="50" cy="50" r="3.4" fill="#fff"/>
  </g>
</svg>
